<svg width="32" height="13" viewBox="0 0 32 13" fill="none" xmlns="http://www.w3.org/2000/svg">
<path fill-rule="evenodd" clip-rule="evenodd" d="M16.4709 4.67836C16.453 6.08599 17.7254 6.87152 18.6838 7.33857C19.6686 7.81782 19.9994 8.12511 19.9956 8.55359C19.9881 9.20949 19.21 9.49887 18.4818 9.51014C17.2113 9.52985 16.4727 9.16717 15.8855 8.89281L15.4279 11.0343C16.017 11.3059 17.108 11.5427 18.2394 11.553C20.8949 11.553 22.6323 10.2422 22.6418 8.20968C22.6521 5.63029 19.0738 5.48743 19.0982 4.33445C19.1067 3.9849 19.4403 3.61182 20.1713 3.51692C20.5331 3.46904 21.532 3.43235 22.6643 3.95385L23.1087 1.88194C22.4998 1.66015 21.7171 1.44775 20.7427 1.44775C18.2431 1.44775 16.485 2.77645 16.4709 4.67836ZM27.3796 1.62628C26.8947 1.62628 26.4859 1.90917 26.3037 2.34328L22.5102 11.4008H25.1638L25.6919 9.94143H28.9347L29.241 11.4008H31.5799L29.5389 1.62628H27.3796ZM27.7507 4.26678L28.5165 7.93712H26.4192L27.7507 4.26678ZM13.2535 1.62628L11.1618 11.4008H13.6904L15.7812 1.62628H13.2535ZM9.51266 1.62628L6.88061 8.27915L5.81595 2.62233C5.69101 1.99092 5.19768 1.62628 4.64982 1.62628H0.347122L0.286962 1.91011C1.17028 2.10178 2.17385 2.41095 2.78179 2.74172C3.15386 2.94371 3.2601 3.12036 3.38222 3.60055L5.39874 11.4008H8.07123L12.1682 1.62628H9.51266Z" fill="#1434CB"/>
</svg>
