<svg width="28" height="28" viewBox="0 0 28 28" fill="none" xmlns="http://www.w3.org/2000/svg">
<path fill-rule="evenodd" clip-rule="evenodd" d="M10.3248 18.1412C10.4895 18.6353 10.99 18.9355 11.5036 18.8482L24.1601 16.6949C24.596 16.6207 24.9396 16.2827 25.0209 15.8481L26.5023 7.92566C26.5592 7.62146 26.3289 7.33915 26.0194 7.33383L7.35686 7.01283C6.99275 7.00657 6.7318 7.36214 6.84695 7.70761L10.3248 18.1412Z" fill="#CCCCCC"/>
<path fill-rule="evenodd" clip-rule="evenodd" d="M23.75 25C24.9926 25 26 23.9926 26 22.75C26 21.5074 24.9926 20.5 23.75 20.5C22.5074 20.5 21.5 21.5074 21.5 22.75C21.5 23.9926 22.5074 25 23.75 25Z" fill="#CCCCCC"/>
<path fill-rule="evenodd" clip-rule="evenodd" d="M10.75 25C11.9926 25 13 23.9926 13 22.75C13 21.5074 11.9926 20.5 10.75 20.5C9.50736 20.5 8.5 21.5074 8.5 22.75C8.5 23.9926 9.50736 25 10.75 25Z" fill="#CCCCCC"/>
<path fill-rule="evenodd" clip-rule="evenodd" d="M2.45442 3.22721C3.1177 3.08508 4.01745 3 5 3C5.98255 3 6.8823 3.08508 7.54558 3.22721C7.87345 3.29747 8.16489 3.38601 8.38495 3.4975C8.4917 3.55158 8.61185 3.62575 8.71511 3.73388C8.80017 3.82296 9 4.06912 9 4.5C9 4.93088 8.80017 5.17705 8.71511 5.26612C8.61185 5.37425 8.4917 5.44842 8.38495 5.5025C8.16489 5.61399 7.87345 5.70253 7.54558 5.77279C6.8823 5.91493 5.98255 6 5 6C4.01745 6 3.1177 5.91493 2.45442 5.77279C2.12655 5.70253 1.83511 5.61399 1.61505 5.5025C1.5083 5.44842 1.38815 5.37425 1.28489 5.26612C1.19983 5.17705 1 4.93088 1 4.5C1 4.06912 1.19983 3.82296 1.28489 3.73388C1.38815 3.62575 1.5083 3.55158 1.61505 3.4975C1.83511 3.38601 2.12655 3.29747 2.45442 3.22721Z" fill="#CCCCCC"/>
</svg>
