<svg width="36" height="28" viewBox="0 0 36 28" fill="none" xmlns="http://www.w3.org/2000/svg">
<path fill-rule="evenodd" clip-rule="evenodd" d="M11.2214 16.9665C11.3829 17.4206 11.8452 17.6949 12.3212 17.619L25.0874 15.5828C25.5004 15.517 25.8288 15.201 25.9106 14.7909L27.2654 7.99865C27.3875 7.38644 26.925 6.81324 26.3008 6.80317L8.94122 6.52324C8.24354 6.51199 7.74913 7.20067 7.98289 7.85812L11.2214 16.9665Z" fill="white"/>
<path fill-rule="evenodd" clip-rule="evenodd" d="M11.8262 24.8593C13.1109 24.8593 14.1523 23.8178 14.1523 22.5331C14.1523 21.2484 13.1109 20.207 11.8262 20.207C10.5415 20.207 9.5 21.2484 9.5 22.5331C9.5 23.8178 10.5415 24.8593 11.8262 24.8593Z" fill="white"/>
<path fill-rule="evenodd" clip-rule="evenodd" d="M23.457 24.8593C24.7417 24.8593 25.7831 23.8178 25.7831 22.5331C25.7831 21.2484 24.7417 20.207 23.457 20.207C22.1723 20.207 21.1308 21.2484 21.1308 22.5331C21.1308 23.8178 22.1723 24.8593 23.457 24.8593Z" fill="white"/>
<path fill-rule="evenodd" clip-rule="evenodd" d="M5 3.5C6.933 3.5 8.5 3.27614 8.5 3C8.5 2.72386 6.933 2.5 5 2.5C3.067 2.5 1.5 2.72386 1.5 3C1.5 3.27614 3.067 3.5 5 3.5Z" fill="white"/>
<path fill-rule="evenodd" clip-rule="evenodd" d="M2.45442 2.15147C3.1177 2.05672 4.01745 2 5 2C5.98255 2 6.8823 2.05672 7.54558 2.15147C7.87345 2.19831 8.16489 2.25734 8.38495 2.33167C8.4917 2.36772 8.61185 2.41717 8.71511 2.48926C8.80017 2.54864 9 2.71275 9 3C9 3.28725 8.80017 3.45136 8.71511 3.51074C8.61185 3.58283 8.4917 3.63228 8.38495 3.66833C8.16489 3.74266 7.87345 3.80169 7.54558 3.84853C6.8823 3.94328 5.98255 4 5 4C4.01745 4 3.1177 3.94328 2.45442 3.84853C2.12655 3.80169 1.83511 3.74266 1.61505 3.66833C1.5083 3.63228 1.38815 3.58283 1.28489 3.51074C1.19983 3.45136 1 3.28725 1 3C1 2.71275 1.19983 2.54864 1.28489 2.48926C1.38815 2.41717 1.5083 2.36772 1.61505 2.33167C1.83511 2.25734 2.12655 2.19831 2.45442 2.15147Z" fill="white"/>
</svg>
