<svg width="24" height="15" viewBox="0 0 24 15" fill="none" xmlns="http://www.w3.org/2000/svg">
<path fill-rule="evenodd" clip-rule="evenodd" d="M22.9337 11.8367V11.5649H22.8629L22.781 11.7514L22.6996 11.5649H22.6286V11.8367H22.6788V11.632L22.7554 11.8086H22.8075L22.884 11.6315V11.8367H22.9339H22.9337ZM22.4846 11.8367V11.6115H22.5752V11.5656H22.3438V11.6115H22.4343V11.8367H22.4846Z" fill="#F79410"/>
<path fill-rule="evenodd" clip-rule="evenodd" d="M14.8883 13.0014H8.76367V1.99463H14.8884L14.8883 13.0014Z" fill="#FF5F00"/>
<path fill-rule="evenodd" clip-rule="evenodd" d="M9.15147 7.50012C9.15147 5.26738 10.1969 3.27845 11.8248 1.99668C10.5928 1.02523 9.06814 0.497658 7.49923 0.500008C3.63356 0.500008 0.5 3.63401 0.5 7.50012C0.5 11.3662 3.63356 14.5002 7.49923 14.5002C9.06814 14.5025 10.5929 13.9749 11.8249 13.0035C10.1971 11.7219 9.15147 9.73293 9.15147 7.50012" fill="#EB001B"/>
<path fill-rule="evenodd" clip-rule="evenodd" d="M23.1497 7.50012C23.1497 11.3662 20.0161 14.5002 16.1505 14.5002C14.5814 14.5024 13.0565 13.9749 11.8242 13.0035C13.4526 11.7217 14.498 9.73293 14.498 7.50012C14.498 5.26723 13.4526 3.27845 11.8242 1.99667C13.0564 1.02523 14.5813 0.497731 16.1504 0.500007C20.016 0.500007 23.1496 3.63401 23.1496 7.50012" fill="#F79410"/>
</svg>
