<svg width="29" height="29" viewBox="0 0 29 29" fill="none" xmlns="http://www.w3.org/2000/svg">
<g clip-path="url(#clip0_1_497)">
<rect width="28" height="28" transform="translate(0.5 0.333252)" fill="white"/>
<path fill-rule="evenodd" clip-rule="evenodd" d="M20.2961 17.8333L23.1846 20.7217C23.2211 20.7583 23.2568 20.7955 23.2914 20.8333H27C27.8285 20.8333 28.5 20.1617 28.5 19.3333C28.5 18.5048 27.8285 17.8333 27 17.8333H20.2961ZM20.1278 8.83325C19.7007 7.73683 19.1026 6.72591 18.3662 5.83325H27C27.8285 5.83325 28.5 6.50482 28.5 7.33325C28.5 8.16168 27.8285 8.83325 27 8.83325H20.1278ZM20.8735 12.82C20.8735 12.4874 20.8587 12.1583 20.8298 11.8333H27C27.8285 11.8333 28.5 12.5048 28.5 13.3333C28.5 14.1617 27.8285 14.8333 27 14.8333H20.6891C20.8103 14.1799 20.8735 13.5068 20.8735 12.82Z" fill="#CCCCCC"/>
<path fill-rule="evenodd" clip-rule="evenodd" d="M4.40002 12.82C4.40002 9.78974 6.85652 7.33325 9.88675 7.33325C12.917 7.33325 15.3735 9.78974 15.3735 12.82C15.3735 15.8502 12.917 18.3067 9.88675 18.3067C6.85652 18.3067 4.40002 15.8502 4.40002 12.82ZM0.900024 12.82C0.900024 7.85675 4.92352 3.83325 9.88675 3.83325C14.85 3.83325 18.8735 7.85675 18.8735 12.82C18.8735 14.1704 18.5756 15.4513 18.042 16.6004C17.716 17.3024 17.7877 18.1533 18.335 18.7006L21.7703 22.136C22.3874 22.753 22.3874 23.7535 21.7703 24.3705C21.1532 24.9876 20.1528 24.9876 19.5357 24.3705L16.2117 21.0465C15.6413 20.4761 14.7458 20.4241 14.0303 20.7966C12.7904 21.4419 11.3812 21.8067 9.88675 21.8067C4.92352 21.8067 0.900024 17.7832 0.900024 12.82Z" fill="#CCCCCC"/>
</g>
<defs>
<clipPath id="clip0_1_497">
<rect width="28" height="28" fill="white" transform="translate(0.5 0.333252)"/>
</clipPath>
</defs>
</svg>
