<svg width="20" height="20" viewBox="0 0 20 20" fill="none" xmlns="http://www.w3.org/2000/svg">
<path fill-rule="evenodd" clip-rule="evenodd" d="M3.03393 4.05857C2.26586 4.75224 1.76681 5.83284 1.9949 7.42928C2.22329 9.02783 3.26491 10.6852 4.80433 12.3478C6.25862 13.9184 8.10959 15.4437 9.99992 16.874C11.8903 15.4437 13.7413 13.9184 15.1956 12.3478C16.735 10.6852 17.7766 9.02783 18.0049 7.4293C18.233 5.83285 17.7339 4.75224 16.9659 4.05856C16.1766 3.34572 15.0549 3 13.9999 3C12.1319 3 11.0923 4.08479 10.5176 4.68443C10.4581 4.7466 10.4035 4.80356 10.3535 4.85355C10.1582 5.04882 9.84163 5.04882 9.64637 4.85355C9.59638 4.80356 9.54179 4.7466 9.48221 4.68443C8.90754 4.08479 7.86794 3 5.99992 3C4.94492 3 3.82322 3.34573 3.03393 4.05857ZM2.36367 3.31643C3.37366 2.40427 4.75199 2 5.99992 2C8.0712 2 9.34536 3.11257 9.99993 3.77862C10.6545 3.11257 11.9286 2 13.9999 2C15.2479 2 16.6262 2.40428 17.6361 3.31644C18.6673 4.24776 19.2668 5.66715 18.9949 7.5707C18.7233 9.47217 17.5149 11.3148 15.9293 13.0272C14.3355 14.7486 12.3063 16.3952 10.2999 17.9C10.1221 18.0333 9.8777 18.0333 9.69992 17.9C7.6935 16.3952 5.6644 14.7485 4.07056 13.0272C2.485 11.3148 1.27662 9.47217 1.00495 7.57072C0.732982 5.66716 1.33246 4.24776 2.36367 3.31643Z" fill="#CB11AB"/>
</svg>
