<svg width="30" height="10" viewBox="0 0 30 10" fill="none" xmlns="http://www.w3.org/2000/svg">
<path d="M16.6812 1.84371L14.8644 5.75824H14.6806V1.00024H12.0851V9.00233H14.2372C14.8212 9.00233 15.3402 8.6671 15.589 8.14805L17.4166 4.24433H17.6004V9.00233H20.1958V1.00024H18.0114C17.449 1.00024 16.9191 1.33547 16.6812 1.84371Z" fill="#319B42"/>
<path d="M6.97243 2.04917L5.90182 5.75824H5.71798L4.63656 2.04917C4.45271 1.42198 3.87956 1.00024 3.2307 1.00024H0.667725V9.00233H3.26315V4.24433H3.44699L4.93935 9.00233H6.66963L8.162 4.24433H8.34584V9.00233H10.9413V1.00024H8.37829C7.72943 1.00024 7.14546 1.42198 6.97243 2.04917Z" fill="#319B42"/>
<path d="M21.3244 4.56733V9.00233H23.9206V6.40623H26.7116C27.9232 6.40623 28.9509 5.63822 29.3295 4.56733H21.3244Z" fill="#319B42"/>
<path d="M26.6357 1.00024H20.8591C21.2161 2.90405 22.882 4.24537 24.8833 4.24537H29.3726C29.4051 4.07229 29.4267 3.87758 29.4267 3.68288C29.4267 2.13604 28.1827 1.00024 26.6357 1.00024Z" fill="url(#paint0_linear_1_941)"/>
<defs>
<linearGradient id="paint0_linear_1_941" x1="20.8591" y1="2.6228" x2="29.4267" y2="2.6228" gradientUnits="userSpaceOnUse">
<stop stop-color="#00A3E1"/>
<stop offset="0.3042" stop-color="#009ADD"/>
<stop offset="0.7987" stop-color="#0082D4"/>
<stop offset="1" stop-color="#0076CF"/>
</linearGradient>
</defs>
</svg>
